<svg width="31" height="34" viewBox="0 0 31 34" fill="none" xmlns="http://www.w3.org/2000/svg">
<path fill-rule="evenodd" clip-rule="evenodd" d="M15.5 34C8.19261 34 4.53978 34 2.26989 31.5095C-2.05305e-07 29.0224 0 25.0138 0 17C0 8.9862 -2.05305e-07 4.9793 2.26989 2.4888C4.53978 0 8.19433 0 15.5 0C22.8074 0 26.4602 0 28.7301 2.4888C31 4.981 31 8.9862 31 17C31 25.0138 31 29.0207 28.7301 31.5095C26.4602 34 22.8057 34 15.5 34ZM20.6667 6.8H10.3333C9.5325 6.8 9.13295 6.8 8.804 6.8867C8.36633 7.00263 7.96725 7.23016 7.64682 7.54645C7.32639 7.86275 7.09589 8.25668 6.97844 8.6887C6.88889 9.0168 6.88889 9.4112 6.88889 10.2C6.88889 10.9888 6.88889 11.3849 6.97672 11.7096C7.09416 12.1416 7.32467 12.5356 7.6451 12.8518C7.96553 13.1681 8.36461 13.3957 8.80228 13.5116C9.13467 13.6 9.53422 13.6 10.3333 13.6H20.6667C21.4675 13.6 21.8671 13.6 22.196 13.5133C22.6337 13.3974 23.0328 13.1698 23.3532 12.8535C23.6736 12.5373 23.9041 12.1433 24.0216 11.7113C24.1111 11.3832 24.1111 10.9888 24.1111 10.2C24.1111 9.4112 24.1111 9.0151 24.0233 8.6904C23.9058 8.25838 23.6753 7.86445 23.3549 7.54815C23.0345 7.23186 22.6354 7.00433 22.1977 6.8884C21.8671 6.8 21.4658 6.8 20.6667 6.8ZM10.3333 18.7C10.3333 19.1509 10.1519 19.5833 9.82891 19.9021C9.50593 20.2209 9.06787 20.4 8.61111 20.4C8.15435 20.4 7.7163 20.2209 7.39332 19.9021C7.07034 19.5833 6.88889 19.1509 6.88889 18.7C6.88889 18.2491 7.07034 17.8167 7.39332 17.4979C7.7163 17.1791 8.15435 17 8.61111 17C9.06787 17 9.50593 17.1791 9.82891 17.4979C10.1519 17.8167 10.3333 18.2491 10.3333 18.7ZM15.5 20.4C15.9568 20.4 16.3948 20.2209 16.7178 19.9021C17.0408 19.5833 17.2222 19.1509 17.2222 18.7C17.2222 18.2491 17.0408 17.8167 16.7178 17.4979C16.3948 17.1791 15.9568 17 15.5 17C15.0432 17 14.6052 17.1791 14.2822 17.4979C13.9592 17.8167 13.7778 18.2491 13.7778 18.7C13.7778 19.1509 13.9592 19.5833 14.2822 19.9021C14.6052 20.2209 15.0432 20.4 15.5 20.4ZM24.1111 18.7C24.1111 19.1509 23.9297 19.5833 23.6067 19.9021C23.2837 20.2209 22.8456 20.4 22.3889 20.4C21.9321 20.4 21.4941 20.2209 21.1711 19.9021C20.8481 19.5833 20.6667 19.1509 20.6667 18.7C20.6667 18.2491 20.8481 17.8167 21.1711 17.4979C21.4941 17.1791 21.9321 17 22.3889 17C22.8456 17 23.2837 17.1791 23.6067 17.4979C23.9297 17.8167 24.1111 18.2491 24.1111 18.7ZM22.3889 27.2C22.8456 27.2 23.2837 27.0209 23.6067 26.7021C23.9297 26.3833 24.1111 25.9509 24.1111 25.5C24.1111 25.0491 23.9297 24.6167 23.6067 24.2979C23.2837 23.9791 22.8456 23.8 22.3889 23.8C21.9321 23.8 21.4941 23.9791 21.1711 24.2979C20.8481 24.6167 20.6667 25.0491 20.6667 25.5C20.6667 25.9509 20.8481 26.3833 21.1711 26.7021C21.4941 27.0209 21.9321 27.2 22.3889 27.2ZM17.2222 25.5C17.2222 25.9509 17.0408 26.3833 16.7178 26.7021C16.3948 27.0209 15.9568 27.2 15.5 27.2C15.0432 27.2 14.6052 27.0209 14.2822 26.7021C13.9592 26.3833 13.7778 25.9509 13.7778 25.5C13.7778 25.0491 13.9592 24.6167 14.2822 24.2979C14.6052 23.9791 15.0432 23.8 15.5 23.8C15.9568 23.8 16.3948 23.9791 16.7178 24.2979C17.0408 24.6167 17.2222 25.0491 17.2222 25.5ZM8.61111 27.2C9.06787 27.2 9.50593 27.0209 9.82891 26.7021C10.1519 26.3833 10.3333 25.9509 10.3333 25.5C10.3333 25.0491 10.1519 24.6167 9.82891 24.2979C9.50593 23.9791 9.06787 23.8 8.61111 23.8C8.15435 23.8 7.7163 23.9791 7.39332 24.2979C7.07034 24.6167 6.88889 25.0491 6.88889 25.5C6.88889 25.9509 7.07034 26.3833 7.39332 26.7021C7.7163 27.0209 8.15435 27.2 8.61111 27.2Z" fill="white"/>
</svg>
