<svg width="142" height="39" viewBox="0 0 142 39" fill="none" xmlns="http://www.w3.org/2000/svg">
<path d="M13.376 31.384C11.648 31.384 10.0373 31.1067 8.544 30.552C7.072 29.976 5.792 29.1653 4.704 28.12C3.616 27.0747 2.76267 25.848 2.144 24.44C1.54667 23.032 1.248 21.4853 1.248 19.8C1.248 18.1147 1.54667 16.568 2.144 15.16C2.76267 13.752 3.616 12.5253 4.704 11.48C5.81333 10.4347 7.104 9.63467 8.576 9.08C10.048 8.504 11.6587 8.216 13.408 8.216C15.3493 8.216 17.0987 8.55733 18.656 9.24C20.2347 9.90133 21.5573 10.8827 22.624 12.184L19.296 15.256C18.528 14.3813 17.6747 13.7307 16.736 13.304C15.7973 12.856 14.7733 12.632 13.664 12.632C12.6187 12.632 11.6587 12.8027 10.784 13.144C9.90933 13.4853 9.152 13.976 8.512 14.616C7.872 15.256 7.37067 16.0133 7.008 16.888C6.66667 17.7627 6.496 18.7333 6.496 19.8C6.496 20.8667 6.66667 21.8373 7.008 22.712C7.37067 23.5867 7.872 24.344 8.512 24.984C9.152 25.624 9.90933 26.1147 10.784 26.456C11.6587 26.7973 12.6187 26.968 13.664 26.968C14.7733 26.968 15.7973 26.7547 16.736 26.328C17.6747 25.88 18.528 25.208 19.296 24.312L22.624 27.384C21.5573 28.6853 20.2347 29.6773 18.656 30.36C17.0987 31.0427 15.3387 31.384 13.376 31.384ZM36.239 31V27.64L35.919 26.904V20.888C35.919 19.8213 35.5883 18.9893 34.927 18.392C34.287 17.7947 33.295 17.496 31.951 17.496C31.0337 17.496 30.127 17.6453 29.231 17.944C28.3563 18.2213 27.6097 18.6053 26.991 19.096L25.199 15.608C26.1377 14.9467 27.2683 14.4347 28.591 14.072C29.9137 13.7093 31.2577 13.528 32.623 13.528C35.247 13.528 37.2843 14.1467 38.735 15.384C40.1857 16.6213 40.911 18.552 40.911 21.176V31H36.239ZM30.991 31.256C29.647 31.256 28.495 31.032 27.535 30.584C26.575 30.1147 25.839 29.4853 25.327 28.696C24.815 27.9067 24.559 27.0213 24.559 26.04C24.559 25.016 24.8043 24.12 25.295 23.352C25.807 22.584 26.607 21.9867 27.695 21.56C28.783 21.112 30.2017 20.888 31.951 20.888H36.527V23.8H32.495C31.3217 23.8 30.511 23.992 30.063 24.376C29.6363 24.76 29.423 25.24 29.423 25.816C29.423 26.456 29.6683 26.968 30.159 27.352C30.671 27.7147 31.3643 27.896 32.239 27.896C33.071 27.896 33.8177 27.704 34.479 27.32C35.1403 26.9147 35.6203 26.328 35.919 25.56L36.687 27.864C36.3243 28.9733 35.663 29.816 34.703 30.392C33.743 30.968 32.5057 31.256 30.991 31.256ZM45.429 31V13.784H50.197V18.648L49.525 17.24C50.037 16.024 50.8583 15.1067 51.989 14.488C53.1197 13.848 54.4957 13.528 56.117 13.528V18.136C55.9037 18.1147 55.7117 18.104 55.541 18.104C55.3703 18.0827 55.189 18.072 54.997 18.072C53.6317 18.072 52.5223 18.4667 51.669 19.256C50.837 20.024 50.421 21.2293 50.421 22.872V31H45.429Z" fill="white"/>
<path d="M59.3748 31V8.6H64.5588V31H59.3748ZM69.8748 31V8.6H74.1628L87.3788 24.728H85.2987V8.6H90.4188V31H86.1628L72.9148 14.872H74.9948V31H69.8748Z" fill="#4BBEFF"/>
<path d="M141.45 17.8C141.244 17.4563 139.208 16.5769 139.208 16.5769C139.562 16.3941 139.804 16.3563 139.804 15.6C139.804 14.775 139.8 14.5 139.25 14.5H137.384C137.377 14.4835 137.368 14.4663 137.361 14.4491C136.156 11.8187 135.995 11.1539 134.198 10.2588C131.789 9.0605 127.271 9 125.5 9C123.729 9 119.211 9.0605 116.804 10.2588C115.005 11.1526 115.05 11.6125 113.641 14.4491C113.641 14.4567 113.627 14.4766 113.614 14.5H111.746C111.2 14.5 111.196 14.775 111.196 15.6C111.196 16.3563 111.438 16.3941 111.792 16.5769C111.792 16.5769 109.825 17.525 109.55 17.8C109.275 18.075 109 20 109 23.3C109 26.6 109.275 29.9 109.275 29.9H110.096C110.096 30.8625 110.238 31 110.65 31H116.15C116.562 31 116.7 30.8625 116.7 29.9H134.3C134.3 30.8625 134.438 31 134.85 31H140.488C140.763 31 140.9 30.7938 140.9 29.9H141.725C141.725 29.9 142 26.5312 142 23.3C142 20.0688 141.656 18.1438 141.45 17.8ZM116.512 20.8896C115.259 21.0265 114.001 21.0967 112.741 21.1C111.337 21.1 111.289 21.1901 111.19 20.3135C111.153 19.9123 111.165 19.508 111.225 19.1097L111.269 18.9H111.475C112.3 18.9 113.075 18.9351 114.538 19.3661C115.282 19.5894 115.982 19.9397 116.607 20.4015C116.906 20.6187 116.975 20.825 116.975 20.825L116.512 20.8896ZM133.504 25.8396L133.2 26.6H117.8C117.8 26.6 117.827 26.5581 117.456 25.8314C117.181 25.2938 117.525 24.95 118.069 24.7548C119.122 24.3753 122.2 23.3 125.5 23.3C128.8 23.3 131.939 24.2268 132.959 24.7548C133.337 24.95 133.807 25.0875 133.504 25.8438V25.8396ZM115.835 16.4532C115.613 16.466 115.39 16.4676 115.168 16.458C115.348 16.139 115.447 15.7836 115.623 15.4123C116.173 14.2436 116.802 12.9208 117.922 12.3633C119.54 11.5575 122.894 11.1945 125.5 11.1945C128.106 11.1945 131.46 11.5547 133.078 12.3633C134.198 12.9208 134.825 14.2443 135.377 15.4123C135.554 15.787 135.652 16.1452 135.837 16.4663C135.699 16.4738 135.541 16.4663 135.163 16.4532H115.835ZM139.741 20.3107C139.594 21.1687 139.731 21.1 138.259 21.1C136.999 21.0967 135.741 21.0265 134.488 20.8896C134.292 20.8546 134.237 20.5239 134.393 20.4015C135.015 19.9346 135.716 19.5838 136.462 19.3661C137.925 18.9351 138.749 18.8773 139.562 18.9062C139.617 18.9083 139.669 18.9305 139.708 18.9686C139.747 19.0067 139.771 19.0579 139.775 19.1124C139.813 19.5126 139.802 19.9161 139.741 20.3135V20.3107Z" fill="#4BBEFF"/>
</svg>
