<svg width="33" height="33" viewBox="0 0 33 33" fill="none" xmlns="http://www.w3.org/2000/svg">
<path d="M28.0092 0.823083L0.862953 27.9705C0.310414 28.523 -5.82195e-09 29.2724 0 30.0538C5.82195e-09 30.8352 0.310414 31.5846 0.862953 32.1371C1.41549 32.6896 2.1649 33 2.94631 33C3.72771 33 4.47712 32.6896 5.02966 32.1371L32.1759 4.99174C32.7112 4.43566 33.0071 3.69175 32.9999 2.91988C32.9926 2.14801 32.6829 1.40978 32.1372 0.863823C31.5915 0.317867 30.8534 0.00776164 30.0815 0.000143726C29.3096 -0.00747419 28.5655 0.288004 28.0092 0.823083ZM6.08803 1.87099C5.53976 1.87044 4.99674 1.97788 4.48999 2.18719C3.98324 2.39649 3.52268 2.70355 3.1346 3.09084C2.74652 3.47813 2.43853 3.93806 2.22821 4.44438C2.01789 4.95069 1.90935 5.49348 1.9088 6.04173C1.90826 6.58999 2.0157 7.13299 2.22501 7.63972C2.43432 8.14646 2.7414 8.60701 3.1287 8.99507C3.516 9.38314 3.97595 9.69112 4.48228 9.90143C4.98861 10.1117 5.53141 10.2203 6.07968 10.2208C7.18698 10.2219 8.24936 9.78314 9.03312 9.00097C9.81687 8.21881 10.2578 7.15734 10.2589 6.05008C10.26 4.94283 9.82121 3.88048 9.03902 3.09675C8.25683 2.31301 7.19533 1.87209 6.08803 1.87099ZM26.9633 22.7456C25.856 22.7445 24.7936 23.1833 24.0099 23.9654C23.2261 24.7476 22.7852 25.8091 22.7841 26.9163C22.783 28.0236 23.2218 29.0859 24.004 29.8697C24.7862 30.6534 25.8477 31.0943 26.955 31.0954C27.5032 31.096 28.0463 30.9885 28.553 30.7792C29.0598 30.5699 29.5203 30.2629 29.9084 29.8756C30.2965 29.4883 30.6045 29.0284 30.8148 28.522C31.0251 28.0157 31.1336 27.4729 31.1342 26.9247C31.1347 26.3764 31.0273 25.8334 30.818 25.3267C30.6087 24.82 30.3016 24.3594 29.9143 23.9713C29.527 23.5833 29.067 23.2753 28.5607 23.065C28.0544 22.8547 27.5116 22.7461 26.9633 22.7456Z" fill="#4BBEFF"/>
</svg>
