<svg width="35" height="36" viewBox="0 0 35 36" fill="none" xmlns="http://www.w3.org/2000/svg">
<path fill-rule="evenodd" clip-rule="evenodd" d="M17.1649 0C12.6479 0 8.53286 1.492 6.09786 2.711C5.87786 2.821 5.67286 2.929 5.48186 3.033C5.10386 3.239 4.78186 3.431 4.52586 3.6L7.29586 7.678L8.59986 8.197C13.6959 10.768 20.5299 10.768 25.6269 8.197L27.1069 7.429L29.7259 3.6C29.1834 3.24606 28.6193 2.92643 28.0369 2.643C25.6139 1.437 21.5969 0 17.1659 0H17.1649ZM10.7229 4.616C9.74197 4.43246 8.77318 4.18934 7.82186 3.888C10.1029 2.875 13.5019 1.8 17.1649 1.8C19.7019 1.8 22.1009 2.316 24.0849 2.97C21.7599 3.297 19.2789 3.852 16.9149 4.535C15.0549 5.073 12.8809 5.015 10.7229 4.616ZM26.6829 9.68L26.4369 9.804C20.8309 12.632 13.3949 12.632 7.78886 9.804L7.55586 9.686C-0.86614 18.927 -7.29614 35.997 17.1649 35.997C41.6259 35.997 35.0389 18.61 26.6829 9.68ZM16.1259 18C15.5954 18 15.0867 18.2107 14.7116 18.5858C14.3366 18.9609 14.1259 19.4696 14.1259 20C14.1259 20.5304 14.3366 21.0391 14.7116 21.4142C15.0867 21.7893 15.5954 22 16.1259 22V18ZM18.1259 16V15H16.1259V16C15.065 16 14.0476 16.4214 13.2974 17.1716C12.5473 17.9217 12.1259 18.9391 12.1259 20C12.1259 21.0609 12.5473 22.0783 13.2974 22.8284C14.0476 23.5786 15.065 24 16.1259 24V28C15.2559 28 14.5149 27.445 14.2389 26.667C14.1979 26.5397 14.1319 26.4219 14.0446 26.3206C13.9573 26.2193 13.8506 26.1365 13.7308 26.0772C13.611 26.0178 13.4805 25.9831 13.347 25.9751C13.2136 25.967 13.0798 25.9858 12.9538 26.0304C12.8277 26.0749 12.7118 26.1443 12.6131 26.2344C12.5143 26.3245 12.4345 26.4335 12.3786 26.5549C12.3227 26.6764 12.2917 26.8078 12.2874 26.9415C12.2832 27.0751 12.3058 27.2082 12.3539 27.333C12.6297 28.113 13.1405 28.7883 13.8161 29.2659C14.4916 29.7435 15.2985 30 16.1259 30V31H18.1259V30C19.1867 30 20.2041 29.5786 20.9543 28.8284C21.7044 28.0783 22.1259 27.0609 22.1259 26C22.1259 24.9391 21.7044 23.9217 20.9543 23.1716C20.2041 22.4214 19.1867 22 18.1259 22V18C18.9959 18 19.7369 18.555 20.0129 19.333C20.0538 19.4603 20.1199 19.5781 20.2071 19.6794C20.2944 19.7807 20.4011 19.8635 20.5209 19.9228C20.6407 19.9822 20.7712 20.0169 20.9047 20.0249C21.0381 20.033 21.1719 20.0142 21.2979 19.9696C21.424 19.9251 21.5399 19.8557 21.6387 19.7656C21.7375 19.6755 21.8172 19.5665 21.8731 19.4451C21.929 19.3236 21.9601 19.1922 21.9643 19.0585C21.9686 18.9249 21.946 18.7918 21.8979 18.667C21.622 17.887 21.1112 17.2117 20.4357 16.7341C19.7601 16.2565 18.9532 16 18.1259 16ZM18.1259 24V28C18.6563 28 19.165 27.7893 19.5401 27.4142C19.9151 27.0391 20.1259 26.5304 20.1259 26C20.1259 25.4696 19.9151 24.9609 19.5401 24.5858C19.165 24.2107 18.6563 24 18.1259 24Z" fill="#FF4D00"/>
</svg>
