<svg width="36" height="36" viewBox="0 0 36 36" fill="none" xmlns="http://www.w3.org/2000/svg">
<path d="M18 0C27.9414 0 36 8.0586 36 18C36 27.9414 27.9414 36 18 36C8.0586 36 0 27.9414 0 18C0 8.0586 8.0586 0 18 0ZM18 7.2C17.5226 7.2 17.0648 7.38964 16.7272 7.72721C16.3896 8.06477 16.2 8.52261 16.2 9V18C16.2001 18.4774 16.3898 18.9351 16.7274 19.2726L22.1274 24.6726C22.4669 25.0005 22.9216 25.1819 23.3935 25.1778C23.8655 25.1737 24.3169 24.9844 24.6507 24.6507C24.9844 24.3169 25.1737 23.8655 25.1778 23.3935C25.1819 22.9216 25.0005 22.4669 24.6726 22.1274L19.8 17.2548V9C19.8 8.52261 19.6104 8.06477 19.2728 7.72721C18.9352 7.38964 18.4774 7.2 18 7.2Z" fill="#4BBEFF"/>
</svg>
