<svg width="36" height="36" viewBox="0 0 36 36" fill="none" xmlns="http://www.w3.org/2000/svg">
<path d="M36 5.625C36 6.89062 34.9945 8.05781 33.3 9C31.2539 10.132 28.2023 10.9336 24.7008 11.1727C24.4406 11.0461 24.1805 10.9266 23.9062 10.8211C21.1359 9.66094 17.4516 9 13.5 9C12.9164 9 12.3469 9.01406 11.7773 9.04219L11.7 9C10.0055 8.05781 9 6.89062 9 5.625C9 2.51719 15.0469 0 22.5 0C29.9531 0 36 2.51719 36 5.625ZM11.2992 11.3273C12.0164 11.2781 12.7547 11.25 13.5 11.25C17.8734 11.25 21.7547 12.1148 24.2227 13.4578C25.9664 14.407 27 15.5883 27 16.875C27 17.1562 26.9508 17.4305 26.8523 17.6977C26.5289 18.6258 25.657 19.4766 24.3914 20.1938C24.3844 20.2008 24.3703 20.2008 24.3633 20.2078C24.3422 20.2219 24.3211 20.2289 24.3 20.243C21.8391 21.607 17.9156 22.493 13.5 22.493C9.30937 22.493 5.56172 21.6984 3.07969 20.4469C2.94609 20.3836 2.81953 20.3133 2.69297 20.243C1.00547 19.3078 0 18.1406 0 16.875C0 14.4281 3.75469 12.3398 9 11.5734C9.73828 11.468 10.5047 11.3836 11.2992 11.3273ZM29.25 16.875C29.25 15.3352 28.5047 14.0695 27.5555 13.1203C29.5453 12.8109 31.3664 12.3188 32.9133 11.6789C34.0594 11.2008 35.1281 10.6102 36 9.88594V12.375C36 13.732 34.8398 14.9836 32.9203 15.9539C31.8938 16.4742 30.6422 16.9172 29.2359 17.2547C29.243 17.1281 29.25 17.0086 29.25 16.882V16.875ZM27 23.625C27 24.8906 25.9945 26.0578 24.3 27C24.1734 27.0703 24.0469 27.1336 23.9133 27.2039C21.4383 28.4555 17.6906 29.25 13.5 29.25C9.08438 29.25 5.16094 28.3641 2.7 27C1.00547 26.0578 0 24.8906 0 23.625V21.1359C0.878906 21.8602 1.94063 22.4508 3.08672 22.9289C5.86406 24.0891 9.54844 24.75 13.5 24.75C17.4516 24.75 21.1359 24.0891 23.9133 22.9289C24.4617 22.7039 24.9891 22.4438 25.4883 22.1625C25.9172 21.9234 26.318 21.6562 26.6977 21.375C26.8031 21.2977 26.9016 21.2133 27 21.1359V23.625ZM29.25 23.625V19.5539C30.5859 19.2586 31.8164 18.8859 32.9133 18.4289C34.0594 17.9508 35.1281 17.3602 36 16.6359V19.125C36 19.8633 35.6484 20.6016 34.9523 21.2977C33.8063 22.4438 31.7883 23.3859 29.2359 23.9977C29.243 23.8781 29.25 23.7516 29.25 23.625ZM13.5 31.5C17.4516 31.5 21.1359 30.8391 23.9133 29.6789C25.0594 29.2008 26.1281 28.6102 27 27.8859V30.375C27 33.4828 20.9531 36 13.5 36C6.04688 36 0 33.4828 0 30.375V27.8859C0.878906 28.6102 1.94063 29.2008 3.08672 29.6789C5.86406 30.8391 9.54844 31.5 13.5 31.5Z" fill="#4BBEFF"/>
</svg>
