<svg width="29" height="30" viewBox="0 0 29 30" fill="none" xmlns="http://www.w3.org/2000/svg">
<path d="M14.2128 10.9155C13.2103 10.9155 12.2715 11.3044 11.5606 12.0153C10.8532 12.7261 10.4609 13.6649 10.4609 14.6674C10.4609 15.67 10.8532 16.6088 11.5606 17.3196C12.2715 18.0271 13.2103 18.4194 14.2128 18.4194C15.2153 18.4194 16.1542 18.0271 16.865 17.3196C17.5724 16.6088 17.9647 15.67 17.9647 14.6674C17.9647 13.6649 17.5724 12.7261 16.865 12.0153C16.5178 11.6654 16.1045 11.388 15.6493 11.1992C15.194 11.0104 14.7057 10.914 14.2128 10.9155ZM28.037 18.8117L25.8441 16.9374C25.9481 16.3003 26.0017 15.6498 26.0017 15.0027C26.0017 14.3556 25.9481 13.7018 25.8441 13.0681L28.037 11.1938C28.2026 11.052 28.3212 10.8631 28.3769 10.6523C28.4326 10.4415 28.4228 10.2187 28.3488 10.0135L28.3186 9.92637C27.7151 8.23881 26.8109 6.67454 25.6497 5.30938L25.5893 5.23896C25.4483 5.07317 25.2604 4.95399 25.0503 4.89712C24.8402 4.84026 24.6178 4.84839 24.4124 4.92044L21.6899 5.88943C20.684 5.06461 19.5641 4.41414 18.3503 3.9615L17.8239 1.11485C17.7842 0.900405 17.6802 0.703119 17.5257 0.549204C17.3711 0.395288 17.1735 0.29203 16.9589 0.253147L16.8683 0.236382C15.1248 -0.078794 13.2874 -0.078794 11.5439 0.236382L11.4533 0.253147C11.2387 0.29203 11.041 0.395288 10.8865 0.549204C10.732 0.703119 10.628 0.900405 10.5883 1.11485L10.0585 3.97491C8.85625 4.43116 7.73625 5.08005 6.74246 5.89614L3.99976 4.92044C3.79444 4.84782 3.57189 4.8394 3.36168 4.89629C3.15146 4.95319 2.96354 5.07271 2.82288 5.23896L2.76252 5.30938C1.60339 6.676 0.699364 8.23987 0.0935842 9.92637L0.0634077 10.0135C-0.0874745 10.4327 0.0365843 10.9021 0.375231 11.1938L2.59488 13.0882C2.49093 13.7185 2.44064 14.3623 2.44064 14.9994C2.44064 15.6431 2.49093 16.2869 2.59488 16.9105L0.381937 18.8049C0.216287 18.9468 0.0977298 19.1356 0.0420292 19.3465C-0.0136713 19.5573 -0.00387586 19.7801 0.0701135 19.9852L0.10029 20.0724C0.707172 21.7589 1.60241 23.318 2.76923 24.6894L2.82958 24.7598C2.97059 24.9256 3.15852 25.0447 3.36861 25.1016C3.5787 25.1585 3.80108 25.1503 4.00646 25.0783L6.74917 24.1026C7.74834 24.9241 8.86152 25.5745 10.0652 26.0238L10.595 28.8839C10.6347 29.0983 10.7387 29.2956 10.8932 29.4495C11.0478 29.6034 11.2454 29.7067 11.46 29.7456L11.5506 29.7623C13.3112 30.0792 15.1144 30.0792 16.875 29.7623L16.9656 29.7456C17.1802 29.7067 17.3779 29.6034 17.5324 29.4495C17.6869 29.2956 17.7909 29.0983 17.8306 28.8839L18.357 26.0372C19.5708 25.5812 20.6907 24.9341 21.6966 24.1093L24.4191 25.0783C24.6245 25.1509 24.847 25.1593 25.0572 25.1024C25.2674 25.0455 25.4554 24.926 25.596 24.7598L25.6564 24.6894C26.8232 23.3113 27.7184 21.7589 28.3253 20.0724L28.3555 19.9852C28.4997 19.5694 28.3756 19.1034 28.037 18.8117ZM14.2128 20.5619C10.9571 20.5619 8.31834 17.9231 8.31834 14.6674C8.31834 11.4117 10.9571 8.77296 14.2128 8.77296C17.4685 8.77296 20.1073 11.4117 20.1073 14.6674C20.1073 17.9231 17.4685 20.5619 14.2128 20.5619Z" fill="white"/>
</svg>
