<svg width="24" height="19" viewBox="0 0 24 19" fill="none" xmlns="http://www.w3.org/2000/svg">
<path d="M19.798 2.45831C18.316 1.76099 16.7114 1.25488 15.0399 0.962454C15.0252 0.961981 15.0106 0.964757 14.9972 0.970587C14.9837 0.976416 14.9716 0.985158 14.9619 0.996195C14.7613 1.36735 14.5273 1.85097 14.3713 2.22212C12.5984 1.95219 10.7955 1.95219 9.02257 2.22212C8.86657 1.83972 8.63256 1.36735 8.42084 0.996195C8.4097 0.973701 8.37627 0.962454 8.34284 0.962454C6.67137 1.25488 5.07789 1.76099 3.58471 2.45831C3.57357 2.45831 3.56242 2.46956 3.55128 2.48081C0.52034 7.05836 -0.315397 11.5122 0.0968999 15.921C0.0968999 15.9435 0.108043 15.966 0.130329 15.9773C2.1361 17.4619 4.06387 18.3616 5.96935 18.9577C6.00278 18.969 6.03621 18.9577 6.04735 18.9352C6.49308 18.3167 6.89423 17.6643 7.23967 16.9783C7.26195 16.9333 7.23967 16.8883 7.1951 16.877C6.55994 16.6296 5.9582 16.3372 5.36762 15.9998C5.32304 15.9773 5.32304 15.9098 5.35647 15.876C5.47905 15.7861 5.60162 15.6848 5.7242 15.5949C5.74648 15.5724 5.77991 15.5724 5.8022 15.5836C9.63545 17.3494 13.7696 17.3494 17.5582 15.5836C17.5805 15.5724 17.614 15.5724 17.6362 15.5949C17.7588 15.6961 17.8814 15.7861 18.004 15.8873C18.0485 15.921 18.0485 15.9885 17.9928 16.011C17.4134 16.3597 16.8005 16.6408 16.1653 16.8883C16.1208 16.8995 16.1096 16.9558 16.1208 16.9895C16.4774 17.6756 16.8785 18.3279 17.3131 18.9465C17.3465 18.9577 17.3799 18.969 17.4134 18.9577C19.33 18.3616 21.2578 17.4619 23.2635 15.9773C23.2858 15.966 23.297 15.9435 23.297 15.921C23.7873 10.8261 22.4835 6.40603 19.8426 2.48081C19.8314 2.46956 19.8203 2.45831 19.798 2.45831ZM7.81911 13.233C6.67137 13.233 5.71305 12.1645 5.71305 10.8486C5.71305 9.53271 6.64908 8.46424 7.81911 8.46424C9.00029 8.46424 9.93631 9.54396 9.92517 10.8486C9.92517 12.1645 8.98915 13.233 7.81911 13.233ZM15.5859 13.233C14.4382 13.233 13.4798 12.1645 13.4798 10.8486C13.4798 9.53271 14.4159 8.46424 15.5859 8.46424C16.7671 8.46424 17.7031 9.54396 17.692 10.8486C17.692 12.1645 16.7671 13.233 15.5859 13.233Z" fill="white"/>
</svg>
