<svg width="18" height="19" viewBox="0 0 18 19" fill="none" xmlns="http://www.w3.org/2000/svg">
<path d="M5.26635 0.962402C5.40325 0.96246 5.53868 0.990624 5.66424 1.04515C5.78981 1.09968 5.90285 1.17941 5.99635 1.2794L6.07235 1.3714L10.3464 7.1994L16.2924 1.2554C16.4723 1.07605 16.7138 0.971929 16.9677 0.964174C17.2217 0.95642 17.4691 1.04562 17.6596 1.21365C17.8502 1.38168 17.9697 1.61595 17.9937 1.86888C18.0178 2.1218 17.9448 2.37441 17.7894 2.5754L17.7064 2.6694L11.5434 8.8314L17.8054 17.3714C17.909 17.5129 17.9737 17.6792 17.9928 17.8536C18.0119 18.028 17.9847 18.2044 17.9141 18.365C17.8435 18.5256 17.7318 18.6648 17.5904 18.7686C17.449 18.8724 17.2827 18.9372 17.1084 18.9564L16.9994 18.9624H12.7324C12.5955 18.9623 12.46 18.9342 12.3345 18.8797C12.2089 18.8251 12.0959 18.7454 12.0024 18.6454L11.9264 18.5534L7.65035 12.7244L1.70635 18.6694C1.52639 18.8488 1.28492 18.9529 1.03097 18.9606C0.777017 18.9684 0.529637 18.8792 0.339072 18.7112C0.148507 18.5431 0.0290454 18.3088 0.00495174 18.0559C-0.0191419 17.803 0.0539388 17.5504 0.209351 17.3494L0.292351 17.2554L6.45335 11.0924L0.193351 2.5534C0.0896601 2.41188 0.0250257 2.24558 0.00593713 2.07118C-0.0131515 1.89678 0.0139775 1.72043 0.0846002 1.55983C0.155223 1.39923 0.266854 1.26004 0.408284 1.15623C0.549715 1.05242 0.715968 0.987639 0.890351 0.968402L0.999351 0.962402H5.26635Z" fill="white"/>
</svg>
