<svg width="19" height="19" viewBox="0 0 19 19" fill="none" xmlns="http://www.w3.org/2000/svg">
<path d="M10.3239 0.96351C10.9806 0.96099 11.6373 0.96759 12.2939 0.983309L12.4685 0.989609C12.6701 0.996809 12.869 1.00581 13.1092 1.01661C14.0668 1.06161 14.7202 1.2128 15.2934 1.43509C15.8874 1.66369 16.3878 1.97328 16.8882 2.47366C17.3457 2.92329 17.6998 3.46718 17.9258 4.0675C18.1481 4.64078 18.2993 5.29506 18.3443 6.25263C18.3551 6.49202 18.3641 6.69181 18.3713 6.89341L18.3767 7.068C18.3927 7.72425 18.3996 8.38069 18.3974 9.03714L18.3983 9.70851V10.8875C18.4005 11.5442 18.3936 12.201 18.3776 12.8575L18.3722 13.0321C18.365 13.2337 18.356 13.4326 18.3452 13.6729C18.3002 14.6304 18.1472 15.2838 17.9258 15.8571C17.7005 16.4581 17.3463 17.0024 16.8882 17.4518C16.4381 17.9093 15.894 18.2634 15.2934 18.4895C14.7202 18.7118 14.0668 18.863 13.1092 18.908C12.869 18.9188 12.6701 18.9278 12.4685 18.935L12.2939 18.9404C11.6374 18.9564 10.9806 18.9633 10.3239 18.9611L9.65253 18.962H8.47449C7.81776 18.9642 7.16103 18.9573 6.50449 18.9413L6.3299 18.9359C6.11626 18.9282 5.90266 18.9192 5.68913 18.9089C4.73158 18.8639 4.07821 18.7109 3.50404 18.4895C2.90349 18.2639 2.35951 17.9098 1.91022 17.4518C1.45219 17.0021 1.09777 16.4579 0.871677 15.8571C0.649388 15.2838 0.498196 14.6304 0.453198 13.6729C0.443175 13.4593 0.434176 13.2457 0.4262 13.0321L0.4217 12.8575C0.405108 12.201 0.397608 11.5442 0.399201 10.8875V9.03714C0.396689 8.3807 0.40329 7.72426 0.419 7.068L0.4253 6.89341C0.432499 6.69181 0.441499 6.49202 0.452298 6.25263C0.497296 5.29416 0.648488 4.64168 0.870777 4.0675C1.097 3.46688 1.45211 2.92314 1.91112 2.47456C2.36011 2.01625 2.90374 1.6615 3.50404 1.43509C4.07821 1.2128 4.73068 1.06161 5.68913 1.01661L6.3299 0.989609L6.50449 0.985109C7.16072 0.968525 7.81715 0.961025 8.47359 0.96261L10.3239 0.96351ZM9.39874 5.46336C8.80253 5.45492 8.21058 5.56507 7.65731 5.78741C7.10403 6.00974 6.60046 6.33982 6.17587 6.75846C5.75127 7.17711 5.4141 7.67597 5.18397 8.22605C4.95384 8.77613 4.83534 9.36647 4.83534 9.96275C4.83534 10.559 4.95384 11.1494 5.18397 11.6995C5.4141 12.2495 5.75127 12.7484 6.17587 13.167C6.60046 13.5857 7.10403 13.9158 7.65731 14.1381C8.21058 14.3604 8.80253 14.4706 9.39874 14.4622C10.5922 14.4622 11.7367 13.9881 12.5806 13.1442C13.4244 12.3003 13.8985 11.1557 13.8985 9.9623C13.8985 8.76887 13.4244 7.62432 12.5806 6.78043C11.7367 5.93655 10.5922 5.46336 9.39874 5.46336ZM9.39874 7.2633C9.75738 7.25669 10.1137 7.32161 10.447 7.45428C10.7803 7.58694 11.0838 7.78468 11.3397 8.03596C11.5957 8.28723 11.7991 8.587 11.9379 8.91775C12.0767 9.24849 12.1483 9.60359 12.1483 9.96229C12.1484 10.321 12.077 10.6761 11.9383 11.0069C11.7995 11.3377 11.5963 11.6375 11.3404 11.8889C11.0845 12.1403 10.7811 12.3381 10.4478 12.4709C10.1146 12.6037 9.75828 12.6687 9.39964 12.6622C8.68359 12.6622 7.99687 12.3778 7.49055 11.8714C6.98423 11.3651 6.69978 10.6784 6.69978 9.9623C6.69978 9.24624 6.98423 8.55951 7.49055 8.05318C7.99687 7.54685 8.68359 7.26239 9.39964 7.26239L9.39874 7.2633ZM14.1235 4.1134C13.8332 4.12502 13.5586 4.24853 13.3573 4.45806C13.156 4.6676 13.0435 4.94689 13.0435 5.23746C13.0435 5.52803 13.156 5.80733 13.3573 6.01686C13.5586 6.22639 13.8332 6.34991 14.1235 6.36153C14.4219 6.36153 14.708 6.243 14.919 6.03203C15.1299 5.82106 15.2484 5.53492 15.2484 5.23656C15.2484 4.93821 15.1299 4.65207 14.919 4.4411C14.708 4.23012 14.4219 4.1116 14.1235 4.1116V4.1134Z" fill="white"/>
</svg>
