<svg width="40" height="36" viewBox="0 0 40 36" fill="none" xmlns="http://www.w3.org/2000/svg">
<path fill-rule="evenodd" clip-rule="evenodd" d="M19 2.17835e-08C20.9661 0.000151496 22.8781 0.643812 24.444 1.83268C26.0098 3.02155 27.1436 4.69027 27.672 6.584L27.776 6.994L31.516 6.06C31.7894 5.99196 32.074 5.98243 32.3513 6.03205C32.6286 6.08166 32.8923 6.1893 33.1251 6.3479C33.3579 6.50651 33.5546 6.71251 33.7023 6.95241C33.8499 7.19231 33.9453 7.4607 33.982 7.74L34 8V11.62C35.1275 12.7011 36.0516 13.976 36.728 15.384L37.004 16H38C38.4899 16.0001 38.9627 16.1799 39.3287 16.5054C39.6948 16.8309 39.9287 17.2795 39.986 17.766L40 18V24C40 24.3292 39.9188 24.6533 39.7636 24.9436C39.6083 25.2338 39.3838 25.4813 39.11 25.664L38.894 25.788L36.558 26.958C35.6017 28.8082 34.2164 30.4026 32.518 31.608L32 31.956V34C31.9999 34.4899 31.8201 34.9627 31.4946 35.3287C31.1691 35.6948 30.7205 35.9287 30.234 35.986L30 36H24C23.5101 35.9999 23.0373 35.8201 22.6713 35.4946C22.3052 35.169 22.0713 34.7205 22.014 34.234L22 34H20C19.9999 34.4899 19.8201 34.9627 19.4946 35.3287C19.1691 35.6948 18.7205 35.9287 18.234 35.986L18 36H12C11.5101 35.9999 11.0373 35.8201 10.6713 35.4946C10.3052 35.169 10.0713 34.7205 10.014 34.234L10 34V31.956C8.55517 31.0323 7.30711 29.8322 6.32754 28.4246C5.34797 27.017 4.65621 25.4298 4.292 23.754C3.11265 23.403 2.06963 22.6981 1.30411 21.7348C0.538583 20.7714 0.0875296 19.5961 0.0120001 18.368L0 18V17C0.000565415 16.4902 0.195758 15.9999 0.545697 15.6293C0.895635 15.2586 1.37391 15.0355 1.88279 15.0057C2.39167 14.9758 2.89276 15.1413 3.28367 15.4685C3.67457 15.7957 3.92579 16.2598 3.986 16.766L4 17V18C4 18.296 4.064 18.578 4.18 18.83C4.48527 17.0294 5.16626 15.3133 6.17866 13.7933C7.19105 12.2734 8.51216 10.9836 10.056 10.008C9.9141 8.74897 10.0396 7.47416 10.4244 6.26699C10.8091 5.05982 11.4444 3.94748 12.2887 3.00277C13.133 2.05805 14.1672 1.30224 15.3237 0.784791C16.4803 0.267341 17.733 -8.81254e-05 19 2.17835e-08ZM28 16C27.4696 16 26.9609 16.2107 26.5858 16.5858C26.2107 16.9609 26 17.4696 26 18C26 18.5304 26.2107 19.0391 26.5858 19.4142C26.9609 19.7893 27.4696 20 28 20C28.5304 20 29.0391 19.7893 29.4142 19.4142C29.7893 19.0391 30 18.5304 30 18C30 17.4696 29.7893 16.9609 29.4142 16.5858C29.0391 16.2107 28.5304 16 28 16ZM19 4C17.7886 4 16.6184 4.4398 15.7068 5.23768C14.7953 6.03556 14.2044 7.13725 14.044 8.338C15.0132 8.11293 16.005 7.99952 17 8H23.754L23.894 7.966C23.6568 6.84392 23.0411 5.83747 22.1501 5.1154C21.2591 4.39333 20.1469 3.99952 19 4Z" fill="#4BBEFF"/>
</svg>
