<svg width="43" height="36" viewBox="0 0 43 36" fill="none" xmlns="http://www.w3.org/2000/svg">
<path d="M12.7059 16.9412C14.9524 16.9412 17.1069 16.0487 18.6955 14.4602C20.284 12.8717 21.1765 10.7171 21.1765 8.47059C21.1765 6.22405 20.284 4.06952 18.6955 2.48098C17.1069 0.892434 14.9524 0 12.7059 0C10.4593 0 8.30481 0.892434 6.71627 2.48098C5.12773 4.06952 4.23529 6.22405 4.23529 8.47059C4.23529 10.7171 5.12773 12.8717 6.71627 14.4602C8.30481 16.0487 10.4593 16.9412 12.7059 16.9412ZM31.7647 16.9412C33.4496 16.9412 35.0655 16.2719 36.2569 15.0804C37.4483 13.889 38.1176 12.2731 38.1176 10.5882C38.1176 8.90333 37.4483 7.28744 36.2569 6.09603C35.0655 4.90462 33.4496 4.23529 31.7647 4.23529C30.0798 4.23529 28.4639 4.90462 27.2725 6.09603C26.0811 7.28744 25.4118 8.90333 25.4118 10.5882C25.4118 12.2731 26.0811 13.889 27.2725 15.0804C28.4639 16.2719 30.0798 16.9412 31.7647 16.9412ZM4.76471 21.1765C3.50103 21.1765 2.28911 21.6785 1.39555 22.572C0.501994 23.4656 0 24.6775 0 25.9412V26.4706C0 26.4706 0 36 12.7059 36C25.4118 36 25.4118 26.4706 25.4118 26.4706V25.9412C25.4118 24.6775 24.9098 23.4656 24.0162 22.572C23.1227 21.6785 21.9107 21.1765 20.6471 21.1765H4.76471ZM31.7647 32.8235C29.2849 32.8235 27.3854 32.4402 25.9306 31.8536C26.7773 30.4246 27.3087 28.8312 27.4892 27.18C27.5098 26.9794 27.5232 26.7781 27.5294 26.5765V25.9412C27.5321 24.1671 26.8475 22.4609 25.6193 21.1807C25.6913 21.1777 25.7633 21.1763 25.8353 21.1765H37.6941C38.9297 21.1765 40.1147 21.6673 40.9884 22.541C41.8621 23.4147 42.3529 24.5997 42.3529 25.8353C42.3529 25.8353 42.3529 32.8235 31.7647 32.8235Z" fill="#4BBEFF"/>
</svg>
