<svg width="34" height="36" viewBox="0 0 34 36" fill="none" xmlns="http://www.w3.org/2000/svg">
<path d="M30.4615 2.76923H26.3077V1.38462C26.3077 1.01739 26.1618 0.66521 25.9021 0.405544C25.6425 0.145879 25.2903 0 24.9231 0C24.5559 0 24.2037 0.145879 23.944 0.405544C23.6843 0.66521 23.5385 1.01739 23.5385 1.38462V2.76923H9.69231V1.38462C9.69231 1.01739 9.54643 0.66521 9.28676 0.405544C9.0271 0.145879 8.67492 0 8.30769 0C7.94047 0 7.58829 0.145879 7.32862 0.405544C7.06896 0.66521 6.92308 1.01739 6.92308 1.38462V2.76923H2.76923C2.03479 2.76923 1.33042 3.06099 0.811089 3.58032C0.291757 4.09965 0 4.80402 0 5.53846V33.2308C0 33.9652 0.291757 34.6696 0.811089 35.1889C1.33042 35.7082 2.03479 36 2.76923 36H30.4615C31.196 36 31.9003 35.7082 32.4197 35.1889C32.939 34.6696 33.2308 33.9652 33.2308 33.2308V5.53846C33.2308 4.80402 32.939 4.09965 32.4197 3.58032C31.9003 3.06099 31.196 2.76923 30.4615 2.76923ZM13.8462 29.0769C13.8462 29.4441 13.7003 29.7963 13.4406 30.056C13.1809 30.3157 12.8288 30.4615 12.4615 30.4615C12.0943 30.4615 11.7421 30.3157 11.4825 30.056C11.2228 29.7963 11.0769 29.4441 11.0769 29.0769V20.2396L10.3119 20.6238C9.98326 20.7882 9.60278 20.8152 9.25417 20.699C8.90557 20.5828 8.61741 20.3329 8.45308 20.0042C8.28874 19.6756 8.2617 19.2951 8.3779 18.9465C8.49411 18.5979 8.74403 18.3097 9.07269 18.1454L11.8419 16.7608C12.0531 16.6551 12.2878 16.6052 12.5237 16.6158C12.7596 16.6264 12.9889 16.6971 13.1897 16.8213C13.3906 16.9455 13.5563 17.119 13.6712 17.3253C13.7861 17.5316 13.8463 17.7639 13.8462 18V29.0769ZM23.5385 27.6923C23.9057 27.6923 24.2579 27.8382 24.5175 28.0979C24.7772 28.3575 24.9231 28.7097 24.9231 29.0769C24.9231 29.4441 24.7772 29.7963 24.5175 30.056C24.2579 30.3157 23.9057 30.4615 23.5385 30.4615H18C17.7429 30.4615 17.4908 30.3899 17.2721 30.2547C17.0533 30.1196 16.8766 29.9261 16.7616 29.6961C16.6466 29.4662 16.5979 29.2087 16.621 28.9526C16.6441 28.6965 16.738 28.4519 16.8923 28.2462L21.8735 21.6052C21.9868 21.4544 22.068 21.282 22.1123 21.0986C22.1566 20.9152 22.1629 20.7247 22.1309 20.5388C22.099 20.3529 22.0293 20.1755 21.9263 20.0174C21.8233 19.8594 21.689 19.7241 21.5318 19.6198C21.3746 19.5155 21.1978 19.4444 21.0121 19.411C20.8265 19.3775 20.6359 19.3823 20.4522 19.4251C20.2685 19.4679 20.0954 19.5478 19.9437 19.6599C19.792 19.772 19.6647 19.9139 19.5698 20.0769C19.4816 20.2394 19.3617 20.3826 19.2172 20.498C19.0728 20.6134 18.9067 20.6987 18.7287 20.7489C18.5507 20.799 18.3645 20.813 18.1811 20.7901C17.9976 20.7671 17.8206 20.7076 17.6605 20.6152C17.5004 20.5227 17.3604 20.3991 17.2488 20.2516C17.1373 20.1042 17.0564 19.9359 17.0109 19.7566C16.9654 19.5774 16.9563 19.3909 16.9841 19.2081C17.0119 19.0253 17.076 18.8499 17.1727 18.6923C17.6301 17.9008 18.3358 17.2823 19.1804 16.9326C20.025 16.583 20.9614 16.5217 21.8444 16.7583C22.7274 16.995 23.5077 17.5162 24.0643 18.2414C24.6209 18.9666 24.9228 19.8551 24.9231 20.7692C24.926 21.6722 24.6316 22.5511 24.0854 23.2702L20.7692 27.6923H23.5385ZM2.76923 11.0769V5.53846H6.92308V6.92308C6.92308 7.2903 7.06896 7.64248 7.32862 7.90215C7.58829 8.16181 7.94047 8.30769 8.30769 8.30769C8.67492 8.30769 9.0271 8.16181 9.28676 7.90215C9.54643 7.64248 9.69231 7.2903 9.69231 6.92308V5.53846H23.5385V6.92308C23.5385 7.2903 23.6843 7.64248 23.944 7.90215C24.2037 8.16181 24.5559 8.30769 24.9231 8.30769C25.2903 8.30769 25.6425 8.16181 25.9021 7.90215C26.1618 7.64248 26.3077 7.2903 26.3077 6.92308V5.53846H30.4615V11.0769H2.76923Z" fill="#4BBEFF"/>
</svg>
