<?xml version="1.0" encoding="utf-8"?><svg viewBox="0 0 1920 180" xmlns="http://www.w3.org/2000/svg" xmlns:xlink="http://www.w3.org/1999/xlink"><style>:root>svg{display:none}:root>svg:target{display:block}</style><svg viewBox="0 0 24 14" id="arrow" xmlns="http://www.w3.org/2000/svg"><path d="M2 1.535l10 10 10-10"/></svg><svg viewBox="0 0 31 34" id="calc" xmlns="http://www.w3.org/2000/svg"><path fill-rule="evenodd" clip-rule="evenodd" d="M15.5 34c-7.307 0-10.96 0-13.23-2.49C0 29.021 0 25.014 0 17S0 4.98 2.27 2.489C4.54 0 8.194 0 15.5 0c7.307 0 10.96 0 13.23 2.489C31 4.98 31 8.986 31 17s0 12.02-2.27 14.51S22.806 34 15.5 34zm5.167-27.2H10.333c-.8 0-1.2 0-1.529.087a2.591 2.591 0 00-1.157.66 2.55 2.55 0 00-.669 1.142c-.09.328-.09.722-.09 1.511 0 .789 0 1.185.089 1.51.117.432.348.826.668 1.142.32.316.72.544 1.157.66.333.088.732.088 1.531.088h10.334c.8 0 1.2 0 1.529-.087a2.59 2.59 0 001.157-.66c.32-.316.551-.71.669-1.142.09-.328.09-.722.09-1.511 0-.789 0-1.185-.089-1.51a2.543 2.543 0 00-.668-1.142 2.591 2.591 0 00-1.157-.66c-.33-.088-.732-.088-1.531-.088zM10.333 18.7c0 .45-.181.883-.504 1.202a1.734 1.734 0 01-1.218.498c-.457 0-.895-.18-1.218-.498A1.689 1.689 0 016.89 18.7c0-.45.181-.883.504-1.202A1.734 1.734 0 018.611 17c.457 0 .895.18 1.218.498.323.319.504.751.504 1.202zm5.167 1.7c.457 0 .895-.18 1.218-.498a1.689 1.689 0 000-2.404A1.734 1.734 0 0015.5 17c-.457 0-.895.18-1.218.498a1.689 1.689 0 000 2.404c.323.319.761.498 1.218.498zm8.611-1.7c0 .45-.181.883-.504 1.202a1.734 1.734 0 01-2.436 0 1.689 1.689 0 010-2.404 1.734 1.734 0 012.436 0c.323.319.504.751.504 1.202zm-1.722 8.5c.457 0 .895-.18 1.218-.498a1.689 1.689 0 000-2.404 1.734 1.734 0 00-2.436 0 1.689 1.689 0 000 2.404c.323.319.761.498 1.218.498zm-5.167-1.7c0 .45-.181.883-.504 1.202a1.734 1.734 0 01-1.218.498c-.457 0-.895-.18-1.218-.498a1.689 1.689 0 010-2.404A1.734 1.734 0 0115.5 23.8c.457 0 .895.18 1.218.498.323.319.504.751.504 1.202zm-8.61 1.7c.456 0 .894-.18 1.217-.498a1.689 1.689 0 000-2.404A1.734 1.734 0 008.61 23.8c-.457 0-.895.18-1.218.498A1.689 1.689 0 006.89 25.5c0 .45.181.883.504 1.202.323.319.761.498 1.218.498z"/></svg><svg viewBox="0 0 18 20" id="copy" xmlns="http://www.w3.org/2000/svg"><path d="M12.24 0H8.346C6.582 0 5.184 0 4.091.148 2.965.3 2.054.62 1.336 1.341.617 2.062.298 2.977.147 4.107 0 5.205 0 6.608 0 8.379v5.838c0 1.508.92 2.8 2.227 3.342-.067-.91-.067-2.185-.067-3.247v-5.01c0-1.281 0-2.386.118-3.27.127-.948.413-1.856 1.147-2.593.734-.737 1.639-1.024 2.583-1.152.88-.118 1.98-.118 3.257-.118h3.07c1.276 0 2.374 0 3.255.118A3.6 3.6 0 0012.24 0z"/><path d="M3.6 9.397c0-2.726 0-4.089.844-4.936.843-.847 2.2-.847 4.916-.847h2.88c2.715 0 4.073 0 4.917.847.843.847.843 2.21.843 4.936v4.82c0 2.726 0 4.089-.843 4.936-.844.847-2.202.847-4.917.847H9.36c-2.715 0-4.073 0-4.916-.847-.844-.847-.844-2.21-.844-4.936v-4.82z"/></svg><svg viewBox="0 0 1920 180" id="footer" xmlns="http://www.w3.org/2000/svg"><path d="M348.5 35.047H0v145.416h1920V35.047h-110.16L1769.5 0l-14.14 35.047L1723 18.024h-68.5l-36 17.023h-198.44l-16.94-17.023h-69.29l-35.04 17.023-37.72-25.585-25.43 25.585H656.449L559 9.462l-49.841 25.585L348.5 9.462v25.585z"/></svg><svg viewBox="0 0 142 39" id="logo" xmlns="http://www.w3.org/2000/svg"><path d="M13.376 31.384c-1.728 0-3.339-.277-4.832-.832a11.552 11.552 0 01-3.84-2.432 11.418 11.418 0 01-2.56-3.68c-.597-1.408-.896-2.955-.896-4.64 0-1.685.299-3.232.896-4.64a11.418 11.418 0 012.56-3.68 11.489 11.489 0 013.872-2.4c1.472-.576 3.083-.864 4.832-.864 1.941 0 3.69.341 5.248 1.024a10.089 10.089 0 013.968 2.944l-3.328 3.072c-.768-.875-1.621-1.525-2.56-1.952-.939-.448-1.963-.672-3.072-.672-1.045 0-2.005.17-2.88.512a6.528 6.528 0 00-2.272 1.472 6.925 6.925 0 00-1.504 2.272c-.341.875-.512 1.845-.512 2.912s.17 2.037.512 2.912a6.925 6.925 0 001.504 2.272c.64.64 1.397 1.13 2.272 1.472.875.341 1.835.512 2.88.512 1.11 0 2.133-.213 3.072-.64.939-.448 1.792-1.12 2.56-2.016l3.328 3.072a10.374 10.374 0 01-3.968 2.976c-1.557.683-3.317 1.024-5.28 1.024zM36.239 31v-3.36l-.32-.736v-6.016c0-1.067-.33-1.899-.992-2.496-.64-.597-1.632-.896-2.976-.896a8.55 8.55 0 00-2.72.448c-.875.277-1.621.661-2.24 1.152l-1.792-3.488c.939-.661 2.07-1.173 3.392-1.536a15.18 15.18 0 014.032-.544c2.624 0 4.661.619 6.112 1.856 1.45 1.237 2.176 3.168 2.176 5.792V31h-4.672zm-5.248.256c-1.344 0-2.496-.224-3.456-.672-.96-.47-1.696-1.099-2.208-1.888a4.778 4.778 0 01-.768-2.656c0-1.024.245-1.92.736-2.688.512-.768 1.312-1.365 2.4-1.792 1.088-.448 2.507-.672 4.256-.672h4.576V23.8h-4.032c-1.173 0-1.984.192-2.432.576-.427.384-.64.864-.64 1.44 0 .64.245 1.152.736 1.536.512.363 1.205.544 2.08.544.832 0 1.579-.192 2.24-.576.661-.405 1.141-.992 1.44-1.76l.768 2.304c-.363 1.11-1.024 1.952-1.984 2.528-.96.576-2.197.864-3.712.864zM45.429 31V13.784h4.768v4.864l-.672-1.408c.512-1.216 1.333-2.133 2.464-2.752 1.13-.64 2.507-.96 4.128-.96v4.608a5.853 5.853 0 00-.576-.032 4.398 4.398 0 00-.544-.032c-1.365 0-2.475.395-3.328 1.184-.832.768-1.248 1.973-1.248 3.616V31h-4.992zM59.375 31V8.6h5.184V31h-5.184zm10.5 0V8.6h4.288l13.216 16.128h-2.08V8.6h5.12V31h-4.256L72.915 14.872h2.08V31h-5.12zm71.575-13.2c-.206-.344-2.242-1.223-2.242-1.223.354-.183.596-.22.596-.977 0-.825-.004-1.1-.554-1.1h-1.866l-.023-.05c-1.205-2.631-1.366-3.296-3.163-4.191C131.789 9.06 127.271 9 125.5 9c-1.771 0-6.289.06-8.696 1.259-1.799.894-1.754 1.354-3.163 4.19 0 .008-.014.028-.027.051h-1.868c-.546 0-.55.275-.55 1.1 0 .756.242.794.596.977 0 0-1.967.948-2.242 1.223-.275.275-.55 2.2-.55 5.5s.275 6.6.275 6.6h.821c0 .963.142 1.1.554 1.1h5.5c.412 0 .55-.137.55-1.1h17.6c0 .963.138 1.1.55 1.1h5.638c.275 0 .412-.206.412-1.1h.825s.275-3.369.275-6.6c0-3.231-.344-5.156-.55-5.5zm-24.938 3.09a35.567 35.567 0 01-3.771.21c-1.404 0-1.452.09-1.551-.787a5 5 0 01.035-1.203l.044-.21h.206c.825 0 1.6.035 3.063.466a6.744 6.744 0 012.069 1.035c.299.218.368.424.368.424l-.463.065zm16.992 4.95l-.304.76h-15.4s.027-.042-.344-.769c-.275-.537.069-.881.613-1.076 1.053-.38 4.131-1.455 7.431-1.455s6.439.927 7.459 1.455c.378.195.848.332.545 1.089v-.004zm-17.669-9.387a6.625 6.625 0 01-.667.005c.18-.319.279-.674.455-1.046.55-1.168 1.179-2.491 2.299-3.049 1.618-.806 4.972-1.168 7.578-1.168s5.96.36 7.578 1.168c1.12.558 1.747 1.881 2.299 3.05.177.374.275.732.46 1.053-.138.008-.296 0-.674-.013h-19.328zm23.906 3.858c-.147.858-.01.789-1.482.789a35.567 35.567 0 01-3.771-.21c-.196-.035-.251-.366-.095-.489a6.462 6.462 0 012.069-1.035c1.463-.43 2.287-.489 3.1-.46a.22.22 0 01.213.206c.038.4.027.804-.034 1.202v-.003z"/></svg><svg viewBox="0 0 33 33" id="offer01" xmlns="http://www.w3.org/2000/svg"><path d="M28.01.823L.862 27.971a2.946 2.946 0 104.167 4.166L32.176 4.992A2.948 2.948 0 0028.009.823zM6.087 1.871a4.175 4.175 0 10-.008 8.35 4.175 4.175 0 00.008-8.35zm20.875 20.875a4.175 4.175 0 10-.008 8.35 4.175 4.175 0 00.008-8.35z"/></svg><svg viewBox="0 0 35 36" id="offer02" xmlns="http://www.w3.org/2000/svg"><path fill-rule="evenodd" clip-rule="evenodd" d="M17.165 0C12.648 0 8.533 1.492 6.098 2.711c-.22.11-.425.218-.616.322-.378.206-.7.398-.956.567l2.77 4.078 1.304.519c5.096 2.571 11.93 2.571 17.027 0l1.48-.768L29.726 3.6a15.52 15.52 0 00-1.69-.957C25.615 1.437 21.597 0 17.167 0h-.001zm-6.442 4.616a24.71 24.71 0 01-2.901-.728c2.28-1.013 5.68-2.088 9.343-2.088 2.537 0 4.936.516 6.92 1.17-2.325.327-4.806.882-7.17 1.565-1.86.538-4.034.48-6.192.081zm15.96 5.064l-.246.124c-5.606 2.828-13.042 2.828-18.648 0l-.233-.118c-8.422 9.241-14.852 26.311 9.609 26.311 24.46 0 17.874-17.387 9.518-26.317zM16.126 18a2 2 0 100 4v-4zm2-2v-1h-2v1a4 4 0 100 8v4c-.87 0-1.611-.555-1.887-1.333a1 1 0 10-1.885.666A4 4 0 0016.126 30v1h2v-1a4 4 0 000-8v-4c.87 0 1.61.555 1.887 1.333a1 1 0 101.885-.666A4.001 4.001 0 0018.126 16zm0 8v4a2 2 0 000-4z"/></svg><svg viewBox="0 0 36 36" id="offer03" xmlns="http://www.w3.org/2000/svg"><path d="M36 5.625C36 6.891 34.995 8.058 33.3 9c-2.046 1.132-5.098 1.934-8.6 2.173-.26-.127-.52-.246-.794-.352C21.136 9.661 17.452 9 13.5 9c-.584 0-1.153.014-1.723.042L11.7 9C10.006 8.058 9 6.89 9 5.625 9 2.517 15.047 0 22.5 0S36 2.517 36 5.625zm-24.7 5.702a32.323 32.323 0 012.2-.077c4.373 0 8.255.865 10.723 2.208 1.743.949 2.777 2.13 2.777 3.417 0 .281-.05.555-.148.823-.323.928-1.195 1.779-2.46 2.496-.008.007-.022.007-.029.014-.02.014-.042.02-.063.035-2.46 1.364-6.384 2.25-10.8 2.25-4.19 0-7.938-.795-10.42-2.046a6.725 6.725 0 01-.387-.204C1.005 19.308 0 18.141 0 16.875c0-2.447 3.755-4.535 9-5.302.738-.105 1.505-.19 2.3-.246zm17.95 5.548c0-1.54-.745-2.806-1.695-3.755 1.99-.31 3.811-.801 5.358-1.441C34.06 11.2 35.128 10.61 36 9.886v2.489c0 1.357-1.16 2.609-3.08 3.579-1.026.52-2.278.963-3.684 1.3.007-.126.014-.245.014-.372v-.007zM27 23.625c0 1.266-1.006 2.433-2.7 3.375-.127.07-.253.134-.387.204-2.475 1.252-6.222 2.046-10.413 2.046-4.416 0-8.34-.886-10.8-2.25-1.695-.942-2.7-2.11-2.7-3.375v-2.49c.879.725 1.94 1.316 3.087 1.794 2.777 1.16 6.461 1.821 10.413 1.821s7.636-.66 10.413-1.821a14.186 14.186 0 001.575-.766c.43-.24.83-.507 1.21-.788.105-.077.204-.162.302-.24v2.49zm2.25 0v-4.071c1.336-.295 2.566-.668 3.663-1.125 1.146-.478 2.215-1.069 3.087-1.793v2.489c0 .738-.352 1.477-1.048 2.173-1.146 1.146-3.164 2.088-5.716 2.7a6.3 6.3 0 00.014-.373zM13.5 31.5c3.952 0 7.636-.66 10.413-1.821C25.06 29.2 26.128 28.61 27 27.886v2.489C27 33.483 20.953 36 13.5 36S0 33.483 0 30.375v-2.49c.879.725 1.94 1.316 3.087 1.794C5.864 30.839 9.548 31.5 13.5 31.5z"/></svg><svg viewBox="0 0 36 36" id="offer04" xmlns="http://www.w3.org/2000/svg"><path d="M18 0c9.941 0 18 8.059 18 18s-8.059 18-18 18S0 27.941 0 18 8.059 0 18 0zm0 7.2A1.8 1.8 0 0016.2 9v9c0 .477.19.935.527 1.273l5.4 5.4a1.8 1.8 0 002.546-2.546L19.8 17.255V9A1.8 1.8 0 0018 7.2z"/></svg><svg viewBox="0 0 45 30" id="paypay" xmlns="http://www.w3.org/2000/svg"><path d="M42 30H3a3 3 0 01-3-3V3a3 3 0 013-3h39a3 3 0 013 3v24a3 3 0 01-3 3zM17.54 12.906a.231.231 0 00-.177.088.275.275 0 00-.08.187c0 .027.123.4.386 1.167l.567 1.657.264.773c.296.866.45 1.327.464 1.382a18.207 18.207 0 00-1.574 2.285l-.047.087-.003.032c0 .125.101.227.227.227l.034-.002H17.6h1.522a.42.42 0 00.354-.199l.002-.001 5.04-7.274a.202.202 0 00.04-.121v-.019.001a.28.28 0 00-.08-.187.23.23 0 00-.176-.088H22.78a.422.422 0 00-.355.199l-.002.001-2.1 3.083-.868-2.965a.417.417 0 00-.404-.318l-.033.002h.002l-1.479.003zm17.473-.139h-.033c-.947 0-1.799.412-2.386 1.064l-.003.003a3.558 3.558 0 00-1 2.477v.034-.001c-.002.036-.002.08-.002.122 0 .671.261 1.283.686 1.736h-.001a2.45 2.45 0 001.835.692h-.007a3.117 3.117 0 001.187-.246l-.02.007c.369-.139.681-.355.927-.63l.003-.002a1.856 1.856 0 01-.043.188l.003-.012a1.041 1.041 0 00-.04.235v.002c0 .21.086.317.257.317h1.364a.4.4 0 00.435-.374v-.002l.81-5.158a.262.262 0 00-.059-.221.243.243 0 00-.196-.1h-1.504c-.184 0-.3.218-.337.652a2.073 2.073 0 00-1.887-.784l.01-.001v.002zm-22.454 0h-.035c-.946 0-1.798.412-2.383 1.064l-.002.003a3.558 3.558 0 00-1 2.477v.034-.001a2.53 2.53 0 00.685 1.857l-.002-.001c.443.43 1.048.695 1.716.695l.12-.003h-.007a3.07 3.07 0 001.168-.246l-.02.008a2.51 2.51 0 00.947-.631l.002-.002a1.274 1.274 0 00-.08.413v.002c0 .21.088.317.258.317h1.363a.4.4 0 00.435-.374v-.002l.811-5.158a.265.265 0 00-.06-.219.243.243 0 00-.196-.1h-1.504c-.184 0-.3.219-.336.652a2.109 2.109 0 00-1.888-.784l.01-.002-.002.002zM40.765 10l-.02-.001a.237.237 0 00-.237.217l-1.286 8.224a.238.238 0 00.06.226.252.252 0 00.192.089h1.312l.04.003a.375.375 0 00.375-.375v-.003l1.283-8.081.001-.028a.33.33 0 00-.066-.197v.001a.243.243 0 00-.175-.076l-.019.001h-1.46zm-14.588 0a.385.385 0 00-.434.374l-1.284 8.065a.268.268 0 00.058.217.236.236 0 00.195.1h1.632a.316.316 0 00.31-.255V18.5l.356-2.293c.01-.1.06-.192.139-.256a.612.612 0 01.297-.129h.004c.101-.018.218-.028.336-.03.105 0 .231.006.377.02.158.018.317.027.477.025a3.625 3.625 0 002.47-.966l-.002.003a3.576 3.576 0 00.967-2.67v.01a1.913 1.913 0 00-.756-1.687l-.005-.003a3.412 3.412 0 00-2-.524h.007-3.144zM3.7 10a.375.375 0 00-.415.373v.002L2 18.44a.266.266 0 00.059.217.237.237 0 00.195.1h1.505a.385.385 0 00.435-.373l.356-2.174a.38.38 0 01.138-.256.61.61 0 01.297-.129h.004c.11-.02.222-.03.335-.03h.001c.105 0 .23.006.375.02.158.018.317.027.476.025a3.63 3.63 0 002.472-.966l-.003.002a3.576 3.576 0 00.968-2.668v.01a1.912 1.912 0 00-.757-1.688l-.005-.004a3.413 3.413 0 00-1.991-.525h.007L3.7 10zm31.23 7.294l-.06.001a1.35 1.35 0 01-.872-.319l.002.002a1.11 1.11 0 01-.358-.817l.002-.056v-.034c0-.467.189-.891.495-1.199.301-.308.721-.5 1.186-.5h.041-.002.042c.337 0 .643.123.878.327l-.002-.002a1.147 1.147 0 01.368.843l-.001.06v-.002.03c0 .46-.191.878-.5 1.174a1.677 1.677 0 01-1.187.49h-.03l-.002.002zm-22.474 0l-.062.001a1.31 1.31 0 01-.859-.319l.001.002a1.125 1.125 0 01-.347-.814l.001-.059v-.034c0-.467.189-.891.495-1.199.301-.308.72-.5 1.185-.5h.044-.003.043c.336 0 .642.123.877.327l-.001-.002a1.146 1.146 0 01.366.842l-.001.061v-.002.043c0 .461-.191.876-.5 1.173a1.72 1.72 0 01-1.193.48h-.046zm14.884-3.2l.336-2.114a.236.236 0 01.258-.216h.355l.076-.002c.216 0 .43.015.639.044l-.024-.002a.966.966 0 01.495.247.764.764 0 01.239.555l-.002.048v-.003a1.278 1.278 0 01-.432 1.127h-.001a2.322 2.322 0 01-1.313.3h.008l-.631.02-.003-.004zm-22.474 0l.337-2.114a.236.236 0 01.257-.216h.374c.4-.03.8.05 1.159.232l-.013-.006c.236.151.316.473.237.957a1.13 1.13 0 01-.51.908l-.003.002a4.158 4.158 0 01-1.855.236h.017z"/></svg><svg viewBox="0 0 29 30" id="settings" xmlns="http://www.w3.org/2000/svg"><path d="M14.213 10.915a3.72 3.72 0 00-2.652 1.1 3.733 3.733 0 00-1.1 2.652c0 1.003.392 1.942 1.1 2.653.71.707 1.65 1.1 2.652 1.1a3.734 3.734 0 002.652-1.1 3.738 3.738 0 001.1-2.653 3.734 3.734 0 00-1.1-2.652 3.721 3.721 0 00-2.652-1.1zm13.824 7.897l-2.193-1.875a12.042 12.042 0 000-3.869l2.193-1.874a1.074 1.074 0 00.312-1.18l-.03-.088a14.837 14.837 0 00-2.67-4.617l-.06-.07a1.077 1.077 0 00-1.177-.319l-2.722.97a11.708 11.708 0 00-3.34-1.928l-.526-2.847a1.075 1.075 0 00-.865-.862l-.09-.017a15.11 15.11 0 00-5.325 0l-.09.017a1.075 1.075 0 00-.866.862l-.53 2.86a11.85 11.85 0 00-3.316 1.921L4 4.92a1.073 1.073 0 00-1.177.319l-.06.07a14.952 14.952 0 00-2.67 4.617l-.03.088a1.08 1.08 0 00.312 1.18l2.22 1.894c-.104.63-.154 1.274-.154 1.911 0 .644.05 1.288.154 1.911L.382 18.805a1.074 1.074 0 00-.312 1.18l.03.087a14.876 14.876 0 002.67 4.617l.06.07a1.077 1.077 0 001.176.32l2.743-.976a11.61 11.61 0 003.316 1.92l.53 2.86a1.074 1.074 0 00.865.863l.09.016c1.761.317 3.564.317 5.325 0l.09-.016a1.075 1.075 0 00.866-.862l.526-2.847a11.788 11.788 0 003.34-1.928l2.722.97a1.073 1.073 0 001.177-.32l.06-.07a14.953 14.953 0 002.67-4.617l.03-.087a1.08 1.08 0 00-.319-1.173zm-13.824 1.75a5.894 5.894 0 110-11.788 5.894 5.894 0 010 11.788z"/></svg><svg viewBox="0 0 18 19" id="social01" xmlns="http://www.w3.org/2000/svg"><path d="M5.266.962a1 1 0 01.73.317l.076.092L10.346 7.2l5.946-5.944a1 1 0 011.497 1.32l-.083.094-6.163 6.162 6.262 8.54a1 1 0 01-.697 1.585l-.109.006h-4.267a1 1 0 01-.73-.317l-.076-.092-4.276-5.829-5.944 5.945A1 1 0 01.21 17.35l.083-.094 6.161-6.163-6.26-8.539A1 1 0 01.89.968L1 .962h4.266z"/></svg><svg viewBox="0 0 24 19" id="social02" xmlns="http://www.w3.org/2000/svg"><path d="M19.798 2.458A18.797 18.797 0 0015.04.962a.1.1 0 00-.078.034c-.2.371-.435.855-.59 1.226a17.766 17.766 0 00-5.35 0c-.155-.382-.39-.855-.601-1.226C8.41.974 8.376.962 8.343.962a18.94 18.94 0 00-4.758 1.496c-.011 0-.023.012-.034.023C.521 7.058-.315 11.512.097 15.92a.06.06 0 00.033.056 19.289 19.289 0 005.84 2.98c.033.012.066 0 .077-.022.446-.618.847-1.27 1.193-1.957.022-.045 0-.09-.045-.101A13.658 13.658 0 015.368 16c-.045-.023-.045-.09-.012-.124.123-.09.246-.191.368-.281a.068.068 0 01.078-.011c3.833 1.765 7.968 1.765 11.756 0a.068.068 0 01.078.01c.123.102.245.192.368.293.044.034.044.101-.011.124-.58.349-1.192.63-1.828.877-.044.011-.055.068-.044.101.356.687.758 1.339 1.192 1.957.034.012.067.023.1.012 1.917-.596 3.845-1.496 5.85-2.98a.062.062 0 00.034-.057c.49-5.095-.814-9.515-3.454-13.44-.012-.011-.023-.023-.045-.023zM7.819 13.233c-1.148 0-2.106-1.069-2.106-2.384 0-1.316.936-2.385 2.106-2.385 1.181 0 2.117 1.08 2.106 2.385 0 1.316-.936 2.384-2.106 2.384zm7.767 0c-1.148 0-2.106-1.069-2.106-2.384 0-1.316.936-2.385 2.106-2.385 1.181 0 2.117 1.08 2.106 2.385 0 1.316-.925 2.384-2.106 2.384z"/></svg><svg viewBox="0 0 19 19" id="social03" xmlns="http://www.w3.org/2000/svg"><path d="M10.324.964a68.1 68.1 0 011.97.02l.175.006c.201.007.4.016.64.027.958.045 1.611.196 2.184.418a4.38 4.38 0 011.595 1.039c.458.45.812.993 1.038 1.593.222.574.373 1.228.418 2.186.011.239.02.439.027.64l.006.175c.016.656.023 1.313.02 1.97l.001.67v1.18c.003.656-.004 1.313-.02 1.97l-.006.174c-.007.202-.016.4-.027.64-.045.958-.198 1.612-.42 2.185a4.395 4.395 0 01-1.037 1.595c-.45.457-.994.811-1.595 1.037-.573.223-1.226.374-2.184.419-.24.01-.439.02-.64.027l-.175.005c-.657.016-1.313.023-1.97.021l-.671.001H8.474a71.086 71.086 0 01-1.97-.02l-.174-.006a52.686 52.686 0 01-.64-.027c-.958-.045-1.612-.198-2.186-.42a4.4 4.4 0 01-1.594-1.037 4.413 4.413 0 01-1.038-1.595c-.223-.573-.374-1.227-.419-2.184l-.027-.64-.004-.175a71.146 71.146 0 01-.023-1.97v-1.85c-.002-.657.004-1.314.02-1.97l.006-.175c.007-.201.016-.401.027-.64.045-.959.196-1.611.419-2.186.226-.6.581-1.144 1.04-1.592a4.407 4.407 0 011.593-1.04c.574-.222 1.227-.373 2.185-.418L6.33.99l.175-.005a71.143 71.143 0 011.97-.022h1.85zm-.925 4.5a4.5 4.5 0 100 8.998 4.5 4.5 0 000-8.999zm0 1.8a2.7 2.7 0 110 5.398 2.7 2.7 0 110-5.4v.001zm4.725-3.15a1.125 1.125 0 000 2.248 1.125 1.125 0 000-2.25v.001z"/></svg><svg viewBox="0 0 43 36" id="statistics01" xmlns="http://www.w3.org/2000/svg"><path d="M12.706 16.941a8.47 8.47 0 100-16.942 8.47 8.47 0 000 16.942zm19.059 0a6.353 6.353 0 100-12.705 6.353 6.353 0 000 12.705zm-27 4.236A4.765 4.765 0 000 25.94v.53S0 36 12.706 36s12.706-9.53 12.706-9.53v-.529a4.765 4.765 0 00-4.765-4.764H4.765zm27 11.647c-2.48 0-4.38-.384-5.834-.97a11.652 11.652 0 001.558-4.674c.02-.2.034-.402.04-.604v-.635a6.861 6.861 0 00-1.91-4.76c.072-.003.144-.005.216-.005h11.86a4.659 4.659 0 014.658 4.66s0 6.988-10.588 6.988z"/></svg><svg viewBox="0 0 35 36" id="statistics02" xmlns="http://www.w3.org/2000/svg"><path fill-rule="evenodd" clip-rule="evenodd" d="M17.165 0C12.648 0 8.533 1.492 6.098 2.711c-.22.11-.425.218-.616.322-.378.206-.7.398-.956.567l2.77 4.078 1.304.519c5.096 2.571 11.93 2.571 17.027 0l1.48-.768L29.726 3.6a15.52 15.52 0 00-1.69-.957C25.615 1.437 21.597 0 17.167 0h-.001zm-6.442 4.616a24.71 24.71 0 01-2.901-.728c2.28-1.013 5.68-2.088 9.343-2.088 2.537 0 4.936.516 6.92 1.17-2.325.327-4.806.882-7.17 1.565-1.86.538-4.034.48-6.192.081zm15.96 5.064l-.246.124c-5.606 2.828-13.042 2.828-18.648 0l-.233-.118c-8.422 9.241-14.852 26.311 9.609 26.311 24.46 0 17.874-17.387 9.518-26.317zM16.126 18a2 2 0 100 4v-4zm2-2v-1h-2v1a4 4 0 100 8v4c-.87 0-1.611-.555-1.887-1.333a1 1 0 10-1.885.666A4 4 0 0016.126 30v1h2v-1a4 4 0 000-8v-4c.87 0 1.61.555 1.887 1.333a1 1 0 101.885-.666A4.001 4.001 0 0018.126 16zm0 8v4a2 2 0 000-4z"/></svg><svg viewBox="0 0 40 36" id="statistics03" xmlns="http://www.w3.org/2000/svg"><path fill-rule="evenodd" clip-rule="evenodd" d="M19 0a9.004 9.004 0 018.672 6.584l.104.41 3.74-.934a2 2 0 012.466 1.68L34 8v3.62a13.034 13.034 0 012.728 3.764l.276.616H38a2 2 0 011.986 1.766L40 18v6a2.001 2.001 0 01-.89 1.664l-.216.124-2.336 1.17a13.05 13.05 0 01-4.04 4.65l-.518.348V34a2 2 0 01-1.766 1.986L30 36h-6a2 2 0 01-1.986-1.766L22 34h-2a2 2 0 01-1.766 1.986L18 36h-6a2 2 0 01-1.986-1.766L10 34v-2.044a13.015 13.015 0 01-5.708-8.202 6.004 6.004 0 01-4.28-5.386L0 18v-1a2 2 0 013.986-.234L4 17v1c0 .296.064.578.18.83a13.008 13.008 0 015.876-8.822A9 9 0 0119 0zm9 16a2 2 0 100 4 2 2 0 000-4zM19 4a5 5 0 00-4.956 4.338A13.04 13.04 0 0117 8h6.754l.14-.034A5 5 0 0019 4z"/></svg><svg viewBox="0 0 34 36" id="statistics04" xmlns="http://www.w3.org/2000/svg"><path d="M30.462 2.77h-4.154V1.384a1.385 1.385 0 00-2.77 0v1.384H9.692V1.385a1.385 1.385 0 10-2.769 0v1.384H2.77A2.77 2.77 0 000 5.54v27.69A2.77 2.77 0 002.77 36h27.692a2.77 2.77 0 002.769-2.77V5.539a2.77 2.77 0 00-2.77-2.769zM13.846 29.076a1.385 1.385 0 01-2.77 0V20.24l-.764.384a1.385 1.385 0 11-1.24-2.479l2.77-1.384A1.385 1.385 0 0113.846 18v11.077zm9.692-1.385a1.384 1.384 0 110 2.77H18a1.384 1.384 0 01-1.108-2.216l4.982-6.64a1.384 1.384 0 10-2.304-1.53 1.384 1.384 0 11-2.397-1.384 4.154 4.154 0 116.912 4.578l-3.316 4.422h2.77zM2.77 11.077V5.538h4.154v1.385a1.385 1.385 0 002.77 0V5.538h13.845v1.385a1.384 1.384 0 102.77 0V5.538h4.154v5.539H2.768z"/></svg></svg>